<?xml version="1.0" encoding="UTF-8" standalone="no"?>
<svg
   xmlns:dc="http://purl.org/dc/elements/1.1/"
   xmlns:cc="http://creativecommons.org/ns#"
   xmlns:rdf="http://www.w3.org/1999/02/22-rdf-syntax-ns#"
   xmlns:svg="http://www.w3.org/2000/svg"
   xmlns="http://www.w3.org/2000/svg"
   xmlns:sodipodi="http://sodipodi.sourceforge.net/DTD/sodipodi-0.dtd"
   xmlns:inkscape="http://www.inkscape.org/namespaces/inkscape"
   version="1.1"
   id="svg833"
   width="320.68402"
   height="139.60664"
   viewBox="0 0 320.68402 139.60665"
   sodipodi:docname="cook-logo.svg"
   inkscape:version="1.0.1 (3bc2e813f5, 2020-09-07)">
  <metadata
     id="metadata839">
    <rdf:RDF>
      <cc:Work
         rdf:about="">
        <dc:format>image/svg+xml</dc:format>
        <dc:type
           rdf:resource="http://purl.org/dc/dcmitype/StillImage" />
        <dc:title />
      </cc:Work>
    </rdf:RDF>
  </metadata>
  <defs
     id="defs837">
    <rect
       x="3.8369486"
       y="271.46411"
       width="211.03218"
       height="62.350414"
       id="rect853" />
  </defs>
  <sodipodi:namedview
     pagecolor="#ffffff"
     bordercolor="#666666"
     borderopacity="1"
     objecttolerance="10"
     gridtolerance="10"
     guidetolerance="10"
     inkscape:pageopacity="0"
     inkscape:pageshadow="2"
     inkscape:window-width="1920"
     inkscape:window-height="1001"
     id="namedview835"
     showgrid="false"
     inkscape:zoom="0.85912567"
     inkscape:cx="31.662682"
     inkscape:cy="40.693344"
     inkscape:window-x="-9"
     inkscape:window-y="-9"
     inkscape:window-maximized="1"
     inkscape:current-layer="g1542"
     inkscape:document-rotation="0" />
  <g
     inkscape:groupmode="layer"
     inkscape:label="Image"
     id="g841"
     transform="translate(-105.76983,-68.635723)">
    <g
       id="g912">
      <g
         id="g902"
         transform="translate(263.79022,-217.48748)">
        <g
           id="g871">
          <g
             id="g1472"
             transform="translate(4.0013423,-156.98906)">
            <g
               id="g877"
               transform="matrix(0.51118119,0,0,0.51118119,-164.13623,286.19218)"
               style="fill:#008080" />
            <g
               id="g1542">
              <path
                 id="path845"
                 style="fill:#1a1a1a;stroke-width:0.8"
                 d="m 149.4265,306.98132 c -0.19998,0.20005 1.14173,9.39121 2.98024,20.42605 l 3.34322,20.06306 -7.29775,18.64936 c -9.44236,24.13733 -22.35723,57.67753 -23.93354,62.15309 -0.84708,2.40499 -1.42639,3.1569 -1.84545,2.39946 -0.56811,-1.02686 -7.51056,-18.67696 -25.454221,-64.70538 l -7.328309,-18.79838 3.240045,-18.79073 c 1.780991,-10.33426 3.133916,-19.39223 3.006977,-20.12801 -0.184201,-1.06773 -5.456952,1.28238 -26.115222,11.63818 -14.235559,7.13616 -26.189173,13.52 -26.562254,14.18665 -0.373079,0.66667 -5.207234,13.06463 -10.74411,27.55186 -5.53688,14.48723 -12.36696,32.28154 -15.176249,39.54153 -2.80929,7.26001 -6.972502,18.18894 -9.2539947,24.28505 l -4.1493975,11.08417 4.8142166,13.31552 c 2.6472196,7.32388 8.6215676,23.72763 13.2773076,36.45432 1.639217,4.48089 2.8837,7.98114 4.160859,11.55794 l 24.097833,66.30247 c 17.494726,8.06627 36.542636,13.423 55.420819,15.33291 14.76423,1.4937 40.41328,-0.006 54.79802,-3.20184 12.04894,-2.67717 23.76629,-6.77431 34.95275,-12.09286 l 20.34962,-56.75809 c 0.78334,-2.74319 5.32028,-15.25504 13.68614,-38.17369 l 2.23134,-6.22028 c 0.0432,-0.12044 0.10603,-0.24196 0.16047,-0.36297 0.67685,-1.85219 0.61368,-1.69922 1.34874,-3.71002 4.21968,-11.54299 7.67229,-21.62057 7.67219,-22.39757 -1.1e-4,-0.77701 -3.08602,-9.51733 -6.85453,-19.41734 -31.52469,-82.81629 -31.43271,-82.57828 -32.59913,-83.76738 -1.31671,-1.34233 -51.77753,-26.86615 -52.22663,-26.41708 z m -39.5377,11.78719 3.19419,6.3502 3.1942,6.35401 -3.48076,24.25066 -3.47693,24.24302 4.37482,11.20261 c 2.40744,6.16 5.0237,12.99916 5.81145,15.19917 0.78776,2.2 1.83961,5.04095 2.33834,6.31197 0.49872,1.27103 1.06204,2.15127 1.25322,1.96008 0.19118,-0.19118 3.24569,-8.05745 6.78957,-17.4802 l 6.44572,-17.12868 -3.21331,-22.36318 c -1.76739,-12.29817 -3.2133,-23.38813 -3.2133,-24.64804 0,-1.2599 1.26065,-4.79372 2.80065,-7.85175 1.54,-3.05804 2.80065,-5.74859 2.80065,-5.97956 0,-0.231 -5.76625,-0.42029 -12.81117,-0.42031 z m 80.78715,90.98872 c 0.29293,-0.33634 2.91163,7.04257 5.81909,16.39892 l 5.28801,17.01023 -5.73887,30.53589 c -3.15583,16.79356 -5.97682,30.77028 -6.26611,31.05935 -0.6332,0.63272 -1.52527,-2.43762 -7.80209,-26.82971 l -4.84861,-18.84041 5.20394,-19.5587 c 7.44637,-27.99691 7.75524,-29.09879 8.34464,-29.77557 z m -135.848811,0.21016 c 0.707221,0 0.614357,-0.31347 7.985487,27.39136 l 5.693005,21.38888 -5.799987,23.21141 c -3.187891,12.76485 -6.035298,23.20758 -6.331077,23.20758 -0.552042,0 -12.126937,-59.22817 -12.089037,-61.85888 0.0326,-2.2626 9.858819,-33.34035 10.541609,-33.34035 z"
                 transform="matrix(0.51118119,0,0,0.51118119,-164.13623,286.19218)" />
              <path
                 style="fill:#ff0000;stroke:none;stroke-width:1.08833px;stroke-linecap:butt;stroke-linejoin:miter;stroke-opacity:1"
                 d="m 108.88124,318.47246 28.47675,0.0325 1.4322,0.0463 -7.41079,12.90045 8.11626,49.69975 -15.41747,35.28412 -15.85664,-35.34769 8.05564,-49.61517 z"
                 id="path849"
                 sodipodi:nodetypes="ccccccccc"
                 transform="matrix(0.51118119,0,0,0.51118119,-164.13623,286.19218)" />
              <g
                 aria-label="Restoran"
                 transform="matrix(1.3561026,0,0,1.1766841,-43.325722,112.93651)"
                 id="text851"
                 style="font-style:normal;font-weight:normal;font-size:40px;line-height:1.25;font-family:sans-serif;white-space:pre;shape-inside:url(#rect853);fill:#ffffff;fill-opacity:1;stroke:none">
                <path
                   d="m 30.869141,307.95806 h -7.070313 l -8.964844,-12.38282 q -0.996093,0.0391 -1.621093,0.0391 -0.253907,0 -0.546875,0 -0.292969,-0.0195 -0.605469,-0.0391 v 7.69532 q 0,2.5 0.546875,3.10547 0.742187,0.85937 2.226562,0.85937 h 1.035157 v 0.72266 H 4.5214844 v -0.72266 h 0.9960937 q 1.6796875,0 2.4023438,-1.09375 0.4101562,-0.60547 0.4101562,-2.87109 v -17.10938 q 0,-2.5 -0.546875,-3.10547 -0.7617187,-0.85937 -2.265625,-0.85937 H 4.5214844 v -0.72266 h 9.6484376 q 4.21875,0 6.210937,0.625 2.011719,0.60547 3.398438,2.26563 1.40625,1.64062 1.40625,3.92578 0,2.4414 -1.601563,4.23828 -1.582031,1.79687 -4.921875,2.53906 l 5.46875,7.59766 q 1.875,2.61719 3.222657,3.47656 1.347656,0.85938 3.515625,1.09375 z M 12.060547,294.34478 q 0.371094,0 0.644531,0.0195 0.273438,0 0.449219,0 3.789062,0 5.703125,-1.64063 1.933594,-1.64062 1.933594,-4.17969 0,-2.48046 -1.5625,-4.02343 -1.542969,-1.5625 -4.101563,-1.5625 -1.132812,0 -3.066406,0.37109 z"
                   style="font-style:normal;font-variant:normal;font-weight:normal;font-stretch:normal;font-family:serif;-inkscape-font-specification:serif;fill:#ffffff"
                   id="path1474" />
                <path
                   d="m 34.775391,296.80571 q -0.01953,3.98438 1.933593,6.25 1.953125,2.26563 4.589844,2.26563 1.757813,0 3.046875,-0.95703 1.308594,-0.97657 2.1875,-3.32032 l 0.605469,0.39063 q -0.410156,2.67578 -2.382813,4.88281 -1.972656,2.1875 -4.941406,2.1875 -3.222656,0 -5.527344,-2.5 -2.285156,-2.51953 -2.285156,-6.75781 0,-4.58984 2.34375,-7.14844 2.363281,-2.57812 5.917969,-2.57812 3.007812,0 4.941406,1.99218 1.933594,1.97266 1.933594,5.29297 z m 0,-1.13281 h 8.28125 q -0.09766,-1.71875 -0.410157,-2.42187 -0.488281,-1.09375 -1.464843,-1.71875 -0.957032,-0.625 -2.011719,-0.625 -1.621094,0 -2.910156,1.26953 -1.269532,1.25 -1.484375,3.49609 z"
                   style="font-style:normal;font-variant:normal;font-weight:normal;font-stretch:normal;font-family:serif;-inkscape-font-specification:serif;fill:#ffffff"
                   id="path1476" />
                <path
                   d="m 61.083984,289.54009 v 6.09375 h -0.644531 q -0.742187,-2.8711 -1.914062,-3.90625 -1.152344,-1.03516 -2.949219,-1.03516 -1.367188,0 -2.207031,0.72266 -0.839844,0.72265 -0.839844,1.60156 0,1.09375 0.625,1.875 0.605469,0.80078 2.460937,1.69922 l 2.851563,1.38672 q 3.964844,1.93359 3.964844,5.09765 0,2.44141 -1.855469,3.94532 -1.835938,1.48437 -4.121094,1.48437 -1.640625,0 -3.75,-0.58594 -0.644531,-0.19531 -1.054687,-0.19531 -0.449219,0 -0.703125,0.50781 h -0.644532 v -6.38671 h 0.644532 q 0.546875,2.73437 2.089843,4.12109 1.542969,1.38672 3.457032,1.38672 1.347656,0 2.1875,-0.78125 0.859375,-0.80078 0.859375,-1.91406 0,-1.34766 -0.957032,-2.26563 -0.9375,-0.91797 -3.769531,-2.32422 -2.832031,-1.40625 -3.710937,-2.53906 -0.878907,-1.11328 -0.878907,-2.8125 0,-2.20703 1.503907,-3.69141 1.523437,-1.48437 3.925781,-1.48437 1.054687,0 2.558594,0.44922 0.996093,0.29297 1.328125,0.29297 0.3125,0 0.488281,-0.13672 0.175781,-0.13672 0.410156,-0.60547 z"
                   style="font-style:normal;font-variant:normal;font-weight:normal;font-stretch:normal;font-family:serif;-inkscape-font-specification:serif;fill:#ffffff"
                   id="path1478" />
                <path
                   d="m 70.283203,284.18853 v 5.8789 h 4.179688 v 1.36719 h -4.179688 v 11.60156 q 0,1.73828 0.488281,2.34375 0.507813,0.60547 1.289063,0.60547 0.644531,0 1.25,-0.39062 0.605469,-0.41016 0.9375,-1.19141 h 0.761719 q -0.683594,1.91406 -1.933594,2.89062 -1.25,0.95704 -2.578125,0.95704 -0.898438,0 -1.757813,-0.48829 -0.859375,-0.50781 -1.269531,-1.42578 -0.410156,-0.9375 -0.410156,-2.87109 v -12.03125 h -2.832031 v -0.64453 q 1.074218,-0.42969 2.1875,-1.44531 1.132812,-1.03516 2.011718,-2.44141 0.449219,-0.74219 1.25,-2.71484 z"
                   style="font-style:normal;font-variant:normal;font-weight:normal;font-stretch:normal;font-family:serif;-inkscape-font-specification:serif;fill:#ffffff"
                   id="path1480" />
                <path
                   d="m 84.951172,289.54009 q 4.0625,0 6.523437,3.08594 2.089844,2.63671 2.089844,6.05468 0,2.40235 -1.152344,4.86328 -1.152343,2.46094 -3.183593,3.71094 -2.011719,1.25 -4.492188,1.25 -4.042969,0 -6.425781,-3.22265 -2.011719,-2.71485 -2.011719,-6.09375 0,-2.46094 1.210938,-4.88282 1.230468,-2.4414 3.222656,-3.59375 1.992187,-1.17187 4.21875,-1.17187 z m -0.605469,1.26953 q -1.035156,0 -2.089844,0.625 -1.035156,0.60547 -1.679687,2.14844 -0.644531,1.54297 -0.644531,3.96484 0,3.90625 1.542968,6.73828 1.5625,2.83203 4.101563,2.83203 1.894531,0 3.125,-1.5625 1.230469,-1.5625 1.230469,-5.37109 0,-4.76563 -2.050782,-7.5 -1.386718,-1.875 -3.535156,-1.875 z"
                   style="font-style:normal;font-variant:normal;font-weight:normal;font-stretch:normal;font-family:serif;-inkscape-font-specification:serif;fill:#ffffff"
                   id="path1482" />
                <path
                   d="m 101.43555,289.54009 v 4.02344 q 2.24609,-4.02344 4.60937,-4.02344 1.07422,0 1.77735,0.66406 0.70312,0.64453 0.70312,1.50391 0,0.76172 -0.50781,1.28906 -0.50781,0.52734 -1.21094,0.52734 -0.68359,0 -1.54297,-0.66406 -0.83984,-0.68359 -1.25,-0.68359 -0.35156,0 -0.76172,0.39062 -0.8789,0.80078 -1.8164,2.63672 v 8.57422 q 0,1.48437 0.37109,2.24609 0.25391,0.52735 0.89844,0.87891 0.64453,0.35156 1.85547,0.35156 v 0.70313 h -9.160159 v -0.70313 q 1.367187,0 2.03125,-0.42969 0.488281,-0.3125 0.683593,-0.99609 0.09766,-0.33203 0.09766,-1.89453 v -6.93359 q 0,-3.125 -0.136719,-3.71094 -0.117188,-0.60547 -0.46875,-0.87891 -0.332031,-0.27344 -0.839844,-0.27344 -0.605469,0 -1.367187,0.29297 l -0.195313,-0.70312 5.410149,-2.1875 z"
                   style="font-style:normal;font-variant:normal;font-weight:normal;font-stretch:normal;font-family:serif;-inkscape-font-specification:serif;fill:#ffffff"
                   id="path1484" />
                <path
                   d="m 119.6582,305.37993 q -2.7539,2.12891 -3.45703,2.46094 -1.05469,0.48828 -2.24609,0.48828 -1.85547,0 -3.06641,-1.26953 -1.1914,-1.26953 -1.1914,-3.33984 0,-1.3086 0.58593,-2.26563 0.80078,-1.32812 2.77344,-2.5 1.99219,-1.17187 6.60156,-2.85156 v -0.70313 q 0,-2.67578 -0.85937,-3.67187 -0.83985,-0.9961 -2.46094,-0.9961 -1.23047,0 -1.95312,0.66407 -0.74219,0.66406 -0.74219,1.52343 l 0.0391,1.13282 q 0,0.89843 -0.46875,1.38672 -0.44922,0.48828 -1.19141,0.48828 -0.72265,0 -1.1914,-0.50782 -0.44922,-0.50781 -0.44922,-1.38671 0,-1.67969 1.71875,-3.08594 1.71875,-1.40625 4.82422,-1.40625 2.38281,0 3.90625,0.80078 1.15234,0.60547 1.69922,1.89453 0.35156,0.83984 0.35156,3.4375 v 6.07422 q 0,2.55859 0.0977,3.14453 0.0977,0.56641 0.3125,0.76172 0.23437,0.19531 0.52734,0.19531 0.3125,0 0.54687,-0.13672 0.41016,-0.2539 1.58204,-1.42578 v 1.09375 q -2.1875,2.92969 -4.17969,2.92969 -0.95703,0 -1.52344,-0.66406 -0.56641,-0.66407 -0.58594,-2.26563 z m 0,-1.26953 v -6.81641 q -2.94922,1.17188 -3.80859,1.66016 -1.54297,0.85938 -2.20703,1.79688 -0.66406,0.9375 -0.66406,2.05078 0,1.40625 0.83984,2.34375 0.83984,0.91797 1.93359,0.91797 1.48438,0 3.90625,-1.95313 z"
                   style="font-style:normal;font-variant:normal;font-weight:normal;font-stretch:normal;font-family:serif;-inkscape-font-specification:serif;fill:#ffffff"
                   id="path1486" />
                <path
                   d="m 132.49023,293.32915 q 3.14454,-3.78906 5.9961,-3.78906 1.46484,0 2.51953,0.74219 1.05469,0.72265 1.67969,2.40234 0.42968,1.17187 0.42968,3.59375 v 7.63672 q 0,1.69922 0.27344,2.30469 0.21485,0.48828 0.6836,0.76171 0.48828,0.27344 1.77734,0.27344 v 0.70313 h -8.84766 v -0.70313 h 0.3711 q 1.25,0 1.73828,-0.37109 0.50781,-0.39063 0.70312,-1.13281 0.0781,-0.29297 0.0781,-1.83594 v -7.32422 q 0,-2.44141 -0.64453,-3.53516 -0.625,-1.11328 -2.12891,-1.11328 -2.32422,0 -4.62891,2.53906 v 9.4336 q 0,1.8164 0.21485,2.24609 0.27344,0.56641 0.74219,0.83985 0.48828,0.2539 1.95312,0.2539 v 0.70313 h -8.84766 v -0.70313 h 0.39063 q 1.36719,0 1.83594,-0.68359 0.48828,-0.70313 0.48828,-2.65625 v -6.64063 q 0,-3.22265 -0.15625,-3.92578 -0.13672,-0.70312 -0.44922,-0.95703 -0.29297,-0.25391 -0.80078,-0.25391 -0.54688,0 -1.3086,0.29297 l -0.29296,-0.70312 5.39062,-2.1875 h 0.83984 z"
                   style="font-style:normal;font-variant:normal;font-weight:normal;font-stretch:normal;font-family:serif;-inkscape-font-specification:serif;fill:#ffffff"
                   id="path1488" />
              </g>
              <g
                 aria-label="BOSS"
                 transform="matrix(0.79197557,0,0,1.2626652,-69.54806,153.08804)"
                 id="text869"
                 style="font-style:normal;font-weight:normal;font-size:99.0513px;line-height:1.25;font-family:sans-serif;fill:#ff0000;fill-opacity:1;stroke:none;stroke-width:1.65085">
                <path
                   d="m 82.892658,297.71014 q 9.334424,2.17642 13.106886,5.27177 5.416866,4.40121 5.416866,11.41412 0,7.39983 -5.94888,12.23632 -7.303098,5.85215 -21.232188,5.85215 H 40.911931 v -1.7895 q 4.5463,0 6.142342,-0.82221 1.644406,-0.87057 2.27315,-2.22478 0.677108,-1.35422 0.677108,-6.67436 v -42.5611 q 0,-5.32014 -0.677108,-6.67436 -0.628744,-1.40258 -2.27315,-2.22478 -1.644407,-0.82221 -6.142342,-0.82221 v -1.7895 h 31.437181 q 11.26902,0 15.960414,2.03133 4.691395,1.98296 7.399829,5.99724 2.708434,3.96593 2.708434,8.46386 0,4.73976 -3.433908,8.46386 -3.433907,3.67573 -12.091223,5.85215 z m -17.604821,-1.30585 q 6.867815,0 10.108263,-1.54768 3.288813,-1.54768 5.029949,-4.35284 1.741136,-2.80516 1.741136,-7.158 0,-4.35284 -1.741136,-7.10964 -1.692772,-2.80517 -4.884854,-4.25611 -3.192083,-1.45095 -10.253358,-1.40259 z m 0,3.77246 v 21.03873 l -0.04836,2.41824 q 0,2.61171 1.305853,3.96592 1.354217,1.30586 3.965921,1.30586 3.869191,0 7.109639,-1.69278 3.288813,-1.74113 5.029949,-4.98158 1.741136,-3.28881 1.741136,-7.3031 0,-4.59466 -2.128055,-8.22203 -2.128056,-3.67573 -5.852152,-5.12668 -3.724097,-1.45095 -11.123926,-1.40258 z"
                   style="font-style:normal;font-variant:normal;font-weight:bold;font-stretch:normal;font-size:99.0513px;font-family:serif;-inkscape-font-specification:'serif Bold';fill:#ff0000;stroke-width:1.65085"
                   id="path1491" />
                <path
                   d="m 143.15532,265.98277 q 15.67022,-0.58038 25.43993,9.14096 9.81807,9.72135 9.81807,24.32755 0,12.47814 -7.3031,21.95766 -9.67298,12.57487 -27.32616,12.57487 -17.70155,0 -27.37453,-11.99449 -7.64165,-9.47952 -7.64165,-22.48968 0,-14.6062 9.9148,-24.32754 9.96317,-9.76971 24.47264,-9.18933 z m 0.58037,3.09535 q -8.99587,0 -13.68726,9.18933 -3.82083,7.54493 -3.82083,21.66747 0,16.78262 5.90052,24.81119 4.11102,5.61033 11.51084,5.61033 4.98159,0 8.31877,-2.41824 4.25611,-3.09536 6.62599,-9.86644 2.36988,-6.81945 2.36988,-17.74992 0,-13.01015 -2.41825,-19.44268 -2.41824,-6.4809 -6.1907,-9.14097 -3.7241,-2.66007 -8.60896,-2.66007 z"
                   style="font-style:normal;font-variant:normal;font-weight:bold;font-stretch:normal;font-size:99.0513px;font-family:serif;-inkscape-font-specification:'serif Bold';fill:#ff0000;stroke-width:1.65085"
                   id="path1493" />
                <path
                   d="m 228.47099,265.40239 0.53202,21.86093 h -1.98296 q -1.40259,-8.22203 -6.91618,-13.20361 -5.46524,-5.02995 -11.8494,-5.02995 -4.93322,0 -7.83512,2.66007 -2.85352,2.6117 -2.85352,6.04561 0,2.17642 1.01566,3.86919 1.40258,2.27315 4.49793,4.49794 2.27315,1.59604 10.49519,5.65869 11.51084,5.65869 15.52513,10.68864 3.96592,5.02995 3.96592,11.51084 0,8.22203 -6.43253,14.17092 -6.38417,5.90051 -16.25061,5.90051 -3.09535,0 -5.85215,-0.62874 -2.7568,-0.62874 -6.91618,-2.36988 -2.32151,-0.9673 -3.82083,-0.9673 -1.25748,0 -2.66006,0.9673 -1.40259,0.9673 -2.27315,2.95026 h -1.78951 v -24.76283 h 1.78951 q 2.12805,10.44682 8.17366,15.96042 6.09398,5.46523 13.10689,5.46523 5.41687,0 8.60895,-2.95026 3.24045,-2.95026 3.24045,-6.86781 0,-2.32152 -1.25749,-4.49794 -1.20912,-2.17642 -3.7241,-4.11101 -2.51497,-1.98296 -8.89914,-5.12668 -8.9475,-4.40121 -12.86506,-7.49656 -3.91755,-3.09535 -6.04561,-6.91618 -2.07969,-3.82083 -2.07969,-8.41549 0,-7.83511 5.75542,-13.34871 5.75542,-5.5136 14.50947,-5.5136 3.19208,0 6.19071,0.77384 2.27315,0.58038 5.51359,2.17642 3.28882,1.54768 4.59467,1.54768 1.25749,0 1.98296,-0.77384 0.72547,-0.77384 1.35422,-3.7241 z"
                   style="font-style:normal;font-variant:normal;font-weight:bold;font-stretch:normal;font-size:99.0513px;font-family:serif;-inkscape-font-specification:'serif Bold';fill:#ff0000;stroke-width:1.65085"
                   id="path1495" />
                <path
                   d="m 283.55859,265.40239 0.53202,21.86093 h -1.98296 q -1.40259,-8.22203 -6.91618,-13.20361 -5.46524,-5.02995 -11.8494,-5.02995 -4.93322,0 -7.83511,2.66007 -2.85353,2.6117 -2.85353,6.04561 0,2.17642 1.01566,3.86919 1.40258,2.27315 4.49793,4.49794 2.27315,1.59604 10.49519,5.65869 11.51084,5.65869 15.52513,10.68864 3.96592,5.02995 3.96592,11.51084 0,8.22203 -6.43253,14.17092 -6.38417,5.90051 -16.25061,5.90051 -3.09535,0 -5.85215,-0.62874 -2.7568,-0.62874 -6.91618,-2.36988 -2.32151,-0.9673 -3.82082,-0.9673 -1.25749,0 -2.66007,0.9673 -1.40259,0.9673 -2.27315,2.95026 h -1.7895 v -24.76283 h 1.7895 q 2.12805,10.44682 8.17366,15.96042 6.09398,5.46523 13.10689,5.46523 5.41687,0 8.60895,-2.95026 3.24045,-2.95026 3.24045,-6.86781 0,-2.32152 -1.25749,-4.49794 -1.20912,-2.17642 -3.7241,-4.11101 -2.51497,-1.98296 -8.89914,-5.12668 -8.9475,-4.40121 -12.86506,-7.49656 -3.91755,-3.09535 -6.04561,-6.91618 -2.07969,-3.82083 -2.07969,-8.41549 0,-7.83511 5.75542,-13.34871 5.75542,-5.5136 14.50947,-5.5136 3.19208,0 6.19071,0.77384 2.27315,0.58038 5.51359,2.17642 3.28882,1.54768 4.59467,1.54768 1.25749,0 1.98296,-0.77384 0.72547,-0.77384 1.35422,-3.7241 z"
                   style="font-style:normal;font-variant:normal;font-weight:bold;font-stretch:normal;font-size:99.0513px;font-family:serif;-inkscape-font-specification:'serif Bold';fill:#ff0000;stroke-width:1.65085"
                   id="path1497" />
              </g>
            </g>
          </g>
        </g>
      </g>
    </g>
  </g>
</svg>
